# Blender 3.6.1
# www.blender.org
o Cube
v 1.000000 1.000000 -1.000000
v 1.000000 -1.000000 -1.000000
v 1.000000 1.000000 1.000000
v 1.000000 -1.000000 1.000000
v -1.000000 1.000000 -1.000000
v -1.000000 -1.000000 -1.000000
v -1.000000 1.000000 1.000000
v -1.000000 -1.000000 1.000000
v 1.000000 5.000000 -1.000000
v 1.000000 5.000000 1.000000
v -1.000000 5.000000 -1.000000
v -1.000000 5.000000 1.000000
v 1.000000 1.000000 3.000000
v 1.000000 -1.000000 3.000000
v -1.000000 1.000000 3.000000
v -1.000000 -1.000000 3.000000
v 1.000000 1.000000 -3.000000
v 1.000000 -1.000000 -3.000000
v -1.000000 1.000000 -3.000000
v -1.000000 -1.000000 -3.000000
v 1.000000 -5.000000 -1.000000
v -1.000000 -5.000000 -1.000000
v 1.000000 -5.000000 -3.000000
v -1.000000 -5.000000 -3.000000
v 1.000000 -5.000000 1.000000
v -1.000000 -5.000000 1.000000
v 1.000000 -5.000000 3.000000
v -1.000000 -5.000000 3.000000
v 1.000000 7.000000 -1.000000
v 1.000000 7.000000 1.000000
v -1.000000 7.000000 -1.000000
v -1.000000 7.000000 1.000000
v 2.187189 9.000000 -2.187189
v 2.187189 9.000000 2.187189
v -2.187189 9.000000 -2.187189
v -2.187189 9.000000 2.187189
v 1.000000 6.000000 -6.780962
v -1.000000 6.000000 -6.780962
v 1.000000 8.000000 -6.780962
v -1.000000 8.000000 -6.780962
v 1.000000 6.000000 6.780962
v -1.000000 6.000000 6.780962
v 1.000000 8.000000 6.780962
v -1.000000 8.000000 6.780962
v 1.435731 11.000000 -1.435731
v 1.435731 11.000000 1.435731
v -1.435731 11.000000 -1.435731
v -1.435731 11.000000 1.435731
vn 1.0000 -0.0000 -0.0000
vn -1.0000 -0.0000 -0.0000
vn -0.0000 -1.0000 -0.0000
vn -0.0000 -0.0000 -1.0000
vn -0.0000 -0.0000 1.0000
vn -0.0000 1.0000 -0.0000
vn -0.8599 -0.5104 -0.0000
vn -0.0000 -0.9854 -0.1705
vn -0.0000 0.3517 0.9361
vn -0.0000 -0.5104 0.8599
vn -0.0000 -0.5104 -0.8599
vn 0.8599 -0.5104 -0.0000
vn -0.0000 0.9854 0.1705
vn -0.0000 -0.9854 0.1705
vn -0.0000 0.9854 -0.1705
vn -0.0000 0.3517 -0.9361
vn 0.9361 0.3517 -0.0000
vn -0.9361 0.3517 -0.0000
vt 0.625000 0.750000
vt 0.625000 0.500000
vt 0.625000 0.000000
vt 0.375000 0.000000
vt 0.625000 0.250000
vt 0.375000 0.250000
vt 0.125000 0.500000
vt 0.375000 0.500000
vt 0.375000 0.750000
vt 0.125000 0.750000
vt 0.625000 1.000000
vt 0.375000 1.000000
vt 0.875000 0.500000
vt 0.875000 0.750000
s 0
f 3/1/1 1/2/1 9/2/1 10/1/1
f 7/3/2 8/4/2 16/4/2 15/3/2
f 8/4/2 7/3/2 5/5/2 6/6/2
f 6/7/3 2/8/3 4/9/3 8/10/3
f 2/8/1 1/2/1 3/1/1 4/9/1
f 6/6/2 5/5/2 19/5/2 20/6/2
f 11/5/2 12/3/2 32/3/2 31/5/2
f 1/2/4 5/5/4 11/5/4 9/2/4
f 7/11/5 3/1/5 10/1/5 12/11/5
f 5/5/2 7/3/2 12/3/2 11/5/2
f 14/9/5 13/1/5 15/11/5 16/12/5
f 14/9/5 16/12/5 28/12/5 27/9/5
f 3/1/6 7/11/6 15/11/6 13/1/6
f 4/9/1 3/1/1 13/1/1 14/9/1
f 20/6/4 19/5/4 17/2/4 18/8/4
f 2/8/5 6/7/5 22/7/5 21/8/5
f 5/5/6 1/2/6 17/2/6 19/5/6
f 1/2/1 2/8/1 18/8/1 17/2/1
f 21/8/3 22/7/3 24/7/3 23/8/3
f 18/8/1 2/8/1 21/8/1 23/8/1
f 20/6/4 18/8/4 23/8/4 24/6/4
f 6/6/2 20/6/2 24/6/2 22/6/2
f 26/10/3 25/9/3 27/9/3 28/10/3
f 8/10/4 4/9/4 25/9/4 26/10/4
f 4/9/1 14/9/1 27/9/1 25/9/1
f 16/4/2 8/4/2 26/4/2 28/4/2
f 31/5/7 32/3/7 36/3/7 35/5/7
f 10/1/1 30/1/1 43/1/1 41/1/1
f 9/2/8 11/5/8 38/5/8 37/2/8
f 10/1/1 9/2/1 29/2/1 30/1/1
f 36/11/9 34/1/9 46/1/9 48/11/9
f 32/11/10 30/1/10 34/1/10 36/11/10
f 29/2/11 31/5/11 35/5/11 33/2/11
f 30/1/12 29/2/12 33/2/12 34/1/12
f 37/2/4 38/5/4 40/5/4 39/2/4
f 29/2/1 9/2/1 37/2/1 39/2/1
f 11/5/2 31/5/2 40/5/2 38/5/2
f 31/5/13 29/2/13 39/2/13 40/5/13
f 42/11/5 41/1/5 43/1/5 44/11/5
f 12/11/14 10/1/14 41/1/14 42/11/14
f 32/3/2 12/3/2 42/3/2 44/3/2
f 30/1/15 32/11/15 44/11/15 43/1/15
f 45/2/6 47/13/6 48/14/6 46/1/6
f 33/2/16 35/5/16 47/5/16 45/2/16
f 34/1/17 33/2/17 45/2/17 46/1/17
f 35/5/18 36/3/18 48/3/18 47/5/18
