# Blender 3.6.1
# www.blender.org
o Torus
v 1.420000 0.000000 0.000000
v 1.210000 0.363731 0.000000
v 0.790000 0.363731 0.000000
v 0.580000 0.000000 0.000000
v 0.790000 -0.363731 0.000000
v 1.210000 -0.363731 0.000000
v 1.004092 0.000000 -1.004092
v 0.855599 0.363731 -0.855599
v 0.558614 0.363731 -0.558614
v 0.410122 0.000000 -0.410122
v 0.558614 -0.363731 -0.558614
v 0.855599 -0.363731 -0.855599
v 0.000000 0.000000 -1.420000
v 0.000000 0.363731 -1.210000
v 0.000000 0.363731 -0.790000
v 0.000000 0.000000 -0.580000
v 0.000000 -0.363731 -0.790000
v 0.000000 -0.363731 -1.210000
v -1.004092 0.000000 -1.004091
v -0.855599 0.363731 -0.855599
v -0.558614 0.363731 -0.558614
v -0.410122 0.000000 -0.410122
v -0.558614 -0.363731 -0.558614
v -0.855599 -0.363731 -0.855599
v -1.420000 0.000000 -0.000000
v -1.210000 0.363731 -0.000000
v -0.790000 0.363731 -0.000000
v -0.580000 0.000000 -0.000000
v -0.790000 -0.363731 -0.000000
v -1.210000 -0.363731 -0.000000
v -1.004092 0.000000 1.004091
v -0.855599 0.363731 0.855599
v -0.558614 0.363731 0.558614
v -0.410122 0.000000 0.410122
v -0.558614 -0.363731 0.558614
v -0.855599 -0.363731 0.855599
v 0.000000 0.000000 1.420000
v 0.000000 0.363731 1.210000
v 0.000000 0.363731 0.790000
v 0.000000 0.000000 0.580000
v 0.000000 -0.363731 0.790000
v 0.000000 -0.363731 1.210000
v 1.004091 0.000000 1.004092
v 0.855599 0.363731 0.855600
v 0.558614 0.363731 0.558615
v 0.410122 0.000000 0.410122
v 0.558614 -0.363731 0.558615
v 0.855599 -0.363731 0.855600
vn 0.8152 0.4706 -0.3377
vn -0.0000 1.0000 -0.0000
vn -0.8152 0.4706 0.3377
vn -0.8152 -0.4706 0.3377
vn -0.0000 -1.0000 -0.0000
vn 0.8152 -0.4706 -0.3377
vn 0.3377 0.4706 -0.8152
vn -0.3377 0.4706 0.8152
vn -0.3377 -0.4706 0.8152
vn 0.3377 -0.4706 -0.8152
vn -0.3377 0.4706 -0.8152
vn 0.3377 0.4706 0.8152
vn 0.3377 -0.4706 0.8152
vn -0.3377 -0.4706 -0.8152
vn -0.8152 0.4706 -0.3377
vn 0.8152 0.4706 0.3377
vn 0.8152 -0.4706 0.3377
vn -0.8152 -0.4706 -0.3377
vt 0.500000 0.500000
vt 0.625000 0.500000
vt 0.625000 0.666667
vt 0.500000 0.666667
vt 0.625000 0.833333
vt 0.500000 0.833333
vt 0.625000 1.000000
vt 0.500000 1.000000
vt 0.500000 -0.000000
vt 0.625000 -0.000000
vt 0.625000 0.166667
vt 0.500000 0.166667
vt 0.625000 0.333333
vt 0.500000 0.333333
vt 0.750000 0.500000
vt 0.750000 0.666667
vt 0.750000 0.833333
vt 0.750000 1.000000
vt 0.750000 -0.000000
vt 0.750000 0.166667
vt 0.750000 0.333333
vt 0.875000 0.500000
vt 0.875000 0.666667
vt 0.875000 0.833333
vt 0.875000 1.000000
vt 0.875000 -0.000000
vt 0.875000 0.166667
vt 0.875000 0.333333
vt 1.000000 0.500000
vt 1.000000 0.666667
vt 1.000000 0.833333
vt 1.000000 1.000000
vt 1.000000 -0.000000
vt 1.000000 0.166667
vt 1.000000 0.333333
vt 0.000000 0.500000
vt 0.125000 0.500000
vt 0.125000 0.666667
vt 0.000000 0.666667
vt 0.125000 0.833333
vt 0.000000 0.833333
vt 0.125000 1.000000
vt 0.000000 1.000000
vt 0.000000 -0.000000
vt 0.125000 -0.000000
vt 0.125000 0.166667
vt 0.000000 0.166667
vt 0.125000 0.333333
vt 0.000000 0.333333
vt 0.250000 0.500000
vt 0.250000 0.666667
vt 0.250000 0.833333
vt 0.250000 1.000000
vt 0.250000 -0.000000
vt 0.250000 0.166667
vt 0.250000 0.333333
vt 0.375000 0.500000
vt 0.375000 0.666667
vt 0.375000 0.833333
vt 0.375000 1.000000
vt 0.375000 -0.000000
vt 0.375000 0.166667
vt 0.375000 0.333333
s 0
f 1/1/1 7/2/1 8/3/1 2/4/1
f 2/4/2 8/3/2 9/5/2 3/6/2
f 3/6/3 9/5/3 10/7/3 4/8/3
f 4/9/4 10/10/4 11/11/4 5/12/4
f 5/12/5 11/11/5 12/13/5 6/14/5
f 6/14/6 12/13/6 7/2/6 1/1/6
f 7/2/7 13/15/7 14/16/7 8/3/7
f 8/3/2 14/16/2 15/17/2 9/5/2
f 9/5/8 15/17/8 16/18/8 10/7/8
f 10/10/9 16/19/9 17/20/9 11/11/9
f 11/11/5 17/20/5 18/21/5 12/13/5
f 12/13/10 18/21/10 13/15/10 7/2/10
f 13/15/11 19/22/11 20/23/11 14/16/11
f 14/16/2 20/23/2 21/24/2 15/17/2
f 15/17/12 21/24/12 22/25/12 16/18/12
f 16/19/13 22/26/13 23/27/13 17/20/13
f 17/20/5 23/27/5 24/28/5 18/21/5
f 18/21/14 24/28/14 19/22/14 13/15/14
f 19/22/15 25/29/15 26/30/15 20/23/15
f 20/23/2 26/30/2 27/31/2 21/24/2
f 21/24/16 27/31/16 28/32/16 22/25/16
f 22/26/17 28/33/17 29/34/17 23/27/17
f 23/27/5 29/34/5 30/35/5 24/28/5
f 24/28/18 30/35/18 25/29/18 19/22/18
f 25/36/3 31/37/3 32/38/3 26/39/3
f 26/39/2 32/38/2 33/40/2 27/41/2
f 27/41/1 33/40/1 34/42/1 28/43/1
f 28/44/6 34/45/6 35/46/6 29/47/6
f 29/47/5 35/46/5 36/48/5 30/49/5
f 30/49/4 36/48/4 31/37/4 25/36/4
f 31/37/8 37/50/8 38/51/8 32/38/8
f 32/38/2 38/51/2 39/52/2 33/40/2
f 33/40/7 39/52/7 40/53/7 34/42/7
f 34/45/10 40/54/10 41/55/10 35/46/10
f 35/46/5 41/55/5 42/56/5 36/48/5
f 36/48/9 42/56/9 37/50/9 31/37/9
f 37/50/12 43/57/12 44/58/12 38/51/12
f 38/51/2 44/58/2 45/59/2 39/52/2
f 39/52/11 45/59/11 46/60/11 40/53/11
f 40/54/14 46/61/14 47/62/14 41/55/14
f 41/55/5 47/62/5 48/63/5 42/56/5
f 42/56/13 48/63/13 43/57/13 37/50/13
f 43/57/16 1/1/16 2/4/16 44/58/16
f 44/58/2 2/4/2 3/6/2 45/59/2
f 45/59/15 3/6/15 4/8/15 46/60/15
f 46/61/18 4/9/18 5/12/18 47/62/18
f 47/62/5 5/12/5 6/14/5 48/63/5
f 48/63/17 6/14/17 1/1/17 43/57/17
