# Blender 3.6.1
# www.blender.org
mtllib star.mtl
o Cube
v 0.250000 0.000000 -0.000000
v -0.250000 -0.000000 0.000000
v 0.250000 -0.500000 -0.000000
v -0.250000 -0.500000 0.000000
v 0.250000 -0.809017 -0.587785
v -0.250000 -0.809017 -0.587785
v 0.250000 -0.154509 -0.475528
v -0.250000 -0.154509 -0.475528
v 0.250000 0.309017 -0.951057
v -0.250000 0.309017 -0.951057
v 0.250000 0.404509 -0.293893
v -0.250000 0.404509 -0.293893
v 0.250000 1.000000 -0.000000
v -0.250000 1.000000 0.000000
v 0.250000 0.404509 0.293893
v -0.250000 0.404509 0.293893
v 0.250000 0.309017 0.951057
v -0.250000 0.309017 0.951057
v 0.250000 -0.154509 0.475528
v -0.250000 -0.154509 0.475528
v 0.250000 -0.809017 0.587786
v -0.250000 -0.809017 0.587786
vn 1.0000 -0.0000 -0.0000
vn -0.0000 -0.8851 -0.4653
vn -0.0000 -0.8851 0.4653
vn -0.0000 0.1690 -0.9856
vn -0.0000 -0.7161 -0.6980
vn -0.0000 0.9896 -0.1438
vn -0.0000 0.4426 -0.8967
vn -0.0000 0.4426 0.8967
vn -0.0000 0.9896 0.1438
vn -0.0000 -0.7161 0.6980
vn -0.0000 0.1690 0.9856
vn -1.0000 -0.0000 -0.0000
s 0
f 3//1 1//1 21//1
f 1//1 3//1 5//1
f 1//1 5//1 7//1
f 1//1 7//1 9//1
f 1//1 9//1 11//1
f 1//1 11//1 13//1
f 1//1 13//1 15//1
f 1//1 15//1 17//1
f 1//1 17//1 19//1
f 1//1 19//1 21//1
f 4//2 3//2 21//2 22//2
f 3//3 4//3 6//3 5//3
f 5//4 6//4 8//4 7//4
f 7//5 8//5 10//5 9//5
f 9//6 10//6 12//6 11//6
f 11//7 12//7 14//7 13//7
f 13//8 14//8 16//8 15//8
f 15//9 16//9 18//9 17//9
f 17//10 18//10 20//10 19//10
f 19//11 20//11 22//11 21//11
f 2//12 4//12 22//12
f 4//12 2//12 6//12
f 6//12 2//12 8//12
f 8//12 2//12 10//12
f 10//12 2//12 12//12
f 12//12 2//12 14//12
f 14//12 2//12 16//12
f 16//12 2//12 18//12
f 18//12 2//12 20//12
f 20//12 2//12 22//12
